# xmcd
#
# Track frame offsets: 
#        222
#        22517
#        47825
#        69660
#        96517
#        122167
#        142672
#        162472
#        181017
#        201182
#
# Disc length: 2960 seconds
#
# Revision: 1
# Processed by: cddbd v1.5.2PL0 Copyright (c) Steve Scherf et al.
# Submitted via: ExactAudioCopy v0.99pb4
#
DISCID=810b8e0a
DTITLE=Richard Smith - Bella Firenze
DYEAR=1991
DGENRE=Jazz
TTITLE0=Bella Firenze
TTITLE1=Caledonian Road
TTITLE2=The String Thing
TTITLE3=Our Love Runs Deep
TTITLE4=My Wildest Dreams
TTITLE5=You Could Break My Heart
TTITLE6=Chasin' The Blue Moon
TTITLE7=Hands Up
TTITLE8=The Fighting Ducks
TTITLE9=Couch Surfin'
EXTD=YEAR: 1991
EXTT0=
EXTT1=
EXTT2=
EXTT3=
EXTT4=
EXTT5=
EXTT6=
EXTT7=
EXTT8=
EXTT9=
PLAYORDER=
